<svg viewBox="0 0 500 500" class="w-full h-full " xmlns="http://www.w3.org/2000/svg" data-fg-q7n0="1.13:1.4252:/src/app/components/PomodoroGnomeLogo.tsx:42:5:933:2157:e:svg:xtxtxtetxte:1"><rect x="25" y="25" width="450" height="450" rx="100" fill="#1e293b" data-fg-q7n2="1.13:1.4252:/src/app/components/PomodoroGnomeLogo.tsx:48:9:1113:79:e:rect"/><g transform="&#xA;          translate(275, 265) &#xA;          rotate(100) &#xA;          scale(2.4) &#xA;          translate(-57.5, -60)&#xA;        " data-fg-q7n6="1.13:1.4252:/src/app/components/PomodoroGnomeLogo.tsx:55:7:1365:1081:e:g:e"><g fill="#ef4444" data-fg-q7n7="1.13:1.4252:/src/app/components/PomodoroGnomeLogo.tsx:63:9:1612:823:e:g:etetetete"><path d="M 86.068,0 C 61.466,0 56.851,35.041 70.691,35.041 C 84.529,35.041 110.671,0 86.068,0 z" data-fg-q7n8="1.13:1.4252:/src/app/components/PomodoroGnomeLogo.tsx:64:11:1644:99:e:path"/><path d="M 45.217,30.699 C 52.586,31.149 60.671,2.577 46.821,4.374 C 32.976,6.171 37.845,30.249 45.217,30.699 z" data-fg-q7n9="1.13:1.4252:/src/app/components/PomodoroGnomeLogo.tsx:65:11:1754:115:e:path"/><path d="M 11.445,48.453 C 16.686,46.146 12.12,23.581 3.208,29.735 C -5.7,35.89 6.204,50.759 11.445,48.453 z" data-fg-q7n10="1.13:1.4252:/src/app/components/PomodoroGnomeLogo.tsx:66:11:1880:112:e:path"/><path d="M 26.212,36.642 C 32.451,35.37 32.793,9.778 21.667,14.369 C 10.539,18.961 19.978,37.916 26.212,36.642 z" data-fg-q7n11="1.13:1.4252:/src/app/components/PomodoroGnomeLogo.tsx:67:11:2003:116:e:path"/><path d="M 58.791,93.913 C 59.898,102.367 52.589,106.542 45.431,101.092 C 22.644,83.743 83.16,75.088 79.171,51.386 C 75.86,31.712 15.495,37.769 8.621,68.553 C 3.968,89.374 27.774,118.26 52.614,118.26 C 64.834,118.26 78.929,107.226 81.566,93.248 C 83.58,82.589 57.867,86.86 58.791,93.913 z" data-fg-q7n12="1.13:1.4252:/src/app/components/PomodoroGnomeLogo.tsx:68:11:2130:292:e:path"/></g></g><g transform="&#xA;          translate(240, 180) &#xA;          rotate(0)&#xA;          scale(1)&#xA;        " fill="#15803d" data-fg-q7n14="1.13:1.4252:/src/app/components/PomodoroGnomeLogo.tsx:73:7:2483:596:e:g:etetetete"><path d="M -5 -40 C -5 -60 5 -70 10 -80 C 15 -70 5 -60 5 -40 Z" data-fg-q7n15="1.13:1.4252:/src/app/components/PomodoroGnomeLogo.tsx:81:9:2697:66:e:path"/><path d="M 0 -40 C -30 -45 -60 -30 -70 -10 C -40 -20 -20 -30 0 -35 Z" data-fg-q7n16="1.13:1.4252:/src/app/components/PomodoroGnomeLogo.tsx:82:9:2772:72:e:path"/><path d="M 0 -40 C 30 -45 60 -30 70 -10 C 40 -20 20 -30 0 -35 Z" data-fg-q7n17="1.13:1.4252:/src/app/components/PomodoroGnomeLogo.tsx:83:9:2853:67:e:path"/><path d="M 0 -40 C -15 -30 -20 -10 -15 0 C -5 -15 0 -25 0 -35 Z" data-fg-q7n18="1.13:1.4252:/src/app/components/PomodoroGnomeLogo.tsx:84:9:2929:67:e:path"/><path d="M 0 -40 C 15 -30 20 -10 15 0 C 5 -15 0 -25 0 -35 Z" data-fg-q7n19="1.13:1.4252:/src/app/components/PomodoroGnomeLogo.tsx:85:9:3005:63:e:path"/></g></svg>